<svg width="88" height="68" viewBox="0 0 88 68" fill="none" xmlns="http://www.w3.org/2000/svg">
<path d="M13.9613 44.9326C13.5013 44.9326 13.1013 44.7626 12.7613 44.4226C12.4213 44.0826 12.2513 43.6826 12.2513 43.2226V24.7426C12.2513 24.2826 12.4213 23.8826 12.7613 23.5426C13.1013 23.2026 13.5013 23.0326 13.9613 23.0326H15.1613C15.6213 23.0326 16.0213 23.2026 16.3613 23.5426C16.7013 23.8826 16.8713 24.2826 16.8713 24.7426V43.2226C16.8713 43.6826 16.7013 44.0826 16.3613 44.4226C16.0213 44.7626 15.6213 44.9326 15.1613 44.9326H13.9613ZM26.3681 26.5126V41.4526C26.3681 41.5926 26.4481 41.6826 26.6081 41.7226C27.2481 41.8226 27.8481 41.8726 28.4081 41.8726C30.7481 41.8726 32.4681 41.2426 33.5681 39.9826C34.6681 38.7026 35.2181 36.6026 35.2181 33.6826C35.2181 31.0626 34.6581 29.1426 33.5381 27.9226C32.4181 26.7026 30.7081 26.0926 28.4081 26.0926C27.8481 26.0926 27.2481 26.1426 26.6081 26.2426C26.4481 26.2826 26.3681 26.3726 26.3681 26.5126ZM23.9081 45.0226C23.4081 44.9626 22.9981 44.7526 22.6781 44.3926C22.3581 44.0126 22.1981 43.5726 22.1981 43.0726V24.8926C22.1981 24.3926 22.3581 23.9626 22.6781 23.6026C22.9981 23.2226 23.4081 23.0026 23.9081 22.9426C25.1881 22.8026 26.6181 22.7326 28.1981 22.7326C31.7581 22.7326 34.4781 23.6626 36.3581 25.5226C38.2581 27.3826 39.2081 30.1026 39.2081 33.6826C39.2081 37.5226 38.2581 40.4126 36.3581 42.3526C34.4781 44.2726 31.7581 45.2326 28.1981 45.2326C26.6181 45.2326 25.1881 45.1626 23.9081 45.0226ZM58.4888 37.1326C58.4888 42.5326 55.7888 45.2326 50.3888 45.2326C44.9888 45.2326 42.2888 42.5326 42.2888 37.1326V24.7426C42.2888 24.2826 42.4588 23.8826 42.7988 23.5426C43.1388 23.2026 43.5388 23.0326 43.9988 23.0326H44.8388C45.2988 23.0326 45.6988 23.2026 46.0388 23.5426C46.3788 23.8826 46.5488 24.2826 46.5488 24.7426V37.3726C46.5488 38.9326 46.8588 40.0626 47.4788 40.7626C48.1188 41.4426 49.1088 41.7826 50.4488 41.7826C51.7888 41.7826 52.7688 41.4426 53.3888 40.7626C54.0288 40.0626 54.3488 38.9326 54.3488 37.3726V24.7426C54.3488 24.2826 54.5188 23.8826 54.8588 23.5426C55.1988 23.2026 55.5987 23.0326 56.0587 23.0326H56.7788C57.2388 23.0326 57.6388 23.2026 57.9788 23.5426C58.3188 23.8826 58.4888 24.2826 58.4888 24.7426V37.1326ZM68.6878 35.6926C66.2878 34.8926 64.5478 33.9226 63.4678 32.7826C62.4078 31.6426 61.8778 30.2626 61.8778 28.6426C61.8778 26.8226 62.4878 25.3826 63.7078 24.3226C64.9278 23.2626 66.6378 22.7326 68.8378 22.7326C70.6978 22.7326 72.3178 22.9426 73.6978 23.3626C74.1778 23.5026 74.5578 23.7926 74.8378 24.2326C75.1378 24.6526 75.2878 25.1226 75.2878 25.6426V25.9126C75.2878 26.2926 75.1178 26.5926 74.7778 26.8126C74.4378 27.0126 74.0878 27.0426 73.7278 26.9026C72.2278 26.3226 70.6978 26.0326 69.1378 26.0326C68.1378 26.0326 67.3778 26.2626 66.8578 26.7226C66.3378 27.1826 66.0778 27.8226 66.0778 28.6426C66.0778 30.0826 67.0178 31.1126 68.8978 31.7326C71.5978 32.5926 73.4678 33.5726 74.5078 34.6726C75.5678 35.7726 76.0978 37.1926 76.0978 38.9326C76.0978 43.1326 73.5078 45.2326 68.3278 45.2326C66.7078 45.2326 65.2378 44.9826 63.9178 44.4826C63.4378 44.3026 63.0578 43.9926 62.7778 43.5526C62.5178 43.1126 62.3878 42.6226 62.3878 42.0826V41.7226C62.3878 41.3426 62.5478 41.0726 62.8678 40.9126C63.1878 40.7326 63.5178 40.7226 63.8578 40.8826C65.1778 41.5426 66.5678 41.8726 68.0278 41.8726C70.5678 41.8726 71.8378 40.9126 71.8378 38.9926C71.8378 38.2126 71.5978 37.5726 71.1178 37.0726C70.6378 36.5526 69.8278 36.0926 68.6878 35.6926Z" fill="#FF8125"/>
<path d="M86.5 34C86.5 52.0054 67.6095 67 43.75 67C19.8906 67 1 52.0054 1 34C1 15.9946 19.8906 1 43.75 1C67.6095 1 86.5 15.9946 86.5 34Z" stroke="#FF8125" stroke-width="2"/>
</svg>
